<svg width="32" height="32" viewBox="0 0 32 32" fill="none" xmlns="http://www.w3.org/2000/svg">
<path d="M5.61077 16.6813C7.49011 15.6543 9.58797 14.7971 11.5481 13.9356C14.9203 12.5244 18.3059 11.1377 21.7256 9.84674C22.391 9.62677 23.5865 9.41169 23.7037 10.3899C23.6395 11.7746 23.3754 13.1512 23.1943 14.5278C22.7346 17.5551 22.2033 20.572 21.6851 23.5893C21.5066 24.5943 20.2376 25.1146 19.4256 24.4714C17.4742 23.1637 15.5077 21.8687 13.5812 20.5306C12.9502 19.8944 13.5354 18.9808 14.099 18.5265C15.7062 16.9551 17.4107 15.62 18.934 13.9673C19.3449 12.9829 18.1308 13.8125 17.7303 14.0667C15.53 15.5711 13.3835 17.1672 11.0637 18.4893C9.87871 19.1365 8.4976 18.5834 7.31317 18.2223C6.25119 17.7861 4.69497 17.3466 5.61066 16.6815L5.61077 16.6813Z" fill="#5C5C5C"/>
</svg>
