<svg width="32" height="32" viewBox="0 0 32 32" fill="none" xmlns="http://www.w3.org/2000/svg">
<path d="M28.8933 9.2667C28.04 6.37337 25.6267 3.96003 22.7333 3.1067C20.5333 2.4667 19.0133 2.52003 17.96 3.3067C16.6933 4.25337 16.5467 5.96003 16.5467 7.17337V10.4934C16.5467 13.7734 18.04 15.44 20.9733 15.44H24.8C26 15.44 27.72 15.2934 28.6667 14.0267C29.48 12.9867 29.5467 11.4667 28.8933 9.2667Z" fill="#141414"/>
<path d="M25.2133 17.8135C24.8667 17.4135 24.36 17.1869 23.84 17.1869H19.0667C16.72 17.1869 14.8133 15.2802 14.8133 12.9335V8.1602C14.8133 7.6402 14.5867 7.13353 14.1867 6.78687C13.8 6.4402 13.2667 6.2802 12.76 6.34687C9.62666 6.74687 6.74666 8.46687 4.86666 11.0535C2.97333 13.6535 2.27999 16.8269 2.87999 20.0002C3.74666 24.5869 7.41333 28.2535 12.0133 29.1202C12.7467 29.2669 13.48 29.3335 14.2133 29.3335C16.6267 29.3335 18.96 28.5869 20.9467 27.1335C23.5333 25.2535 25.2533 22.3735 25.6533 19.2402C25.72 18.7202 25.56 18.2002 25.2133 17.8135Z" fill="#141414"/>
</svg>
