<svg width="719" height="880" viewBox="0 0 719 880" fill="none" xmlns="http://www.w3.org/2000/svg">
<path d="M168.606 41.5089C172.708 28.8694 180.725 -0.77655 197.224 0.92395C229.358 4.23608 258.534 32.5066 280.655 54.34C289.702 63.524 302.368 78.587 309.215 88.423C356.885 71.847 403.522 67.1482 452.6 81.5411C468.447 55.4461 488.555 32.6887 513.685 15.2657C523.573 8.41001 545.12 -4.33096 556.961 3.83899C567.819 11.3305 572.089 36.5541 575.045 49.1466C581.017 79.5626 587.118 144.61 579.367 174.352C598.914 199.421 609.883 219.293 616.817 251.024C618.568 259.034 619.583 269.108 621.243 276.336C645.014 304.508 648.782 339.39 637.643 373.907C643.998 385.796 654.261 391.279 665.329 398.369C657.612 408.98 649.782 419.983 641.709 430.302C649.733 431.262 655.142 432.583 662.822 434.706C654.406 436.172 645.526 436.497 636.977 436.407C631.238 442.975 624.752 450.367 618.484 456.44C627.537 460.669 637.131 464.519 646.49 468.923C633.262 467.371 625.175 465.528 612.38 461.968C578.896 491.971 536.034 512.574 492.143 521.869C491.561 526.926 491.257 533.672 490.553 538.362C499.014 546.916 504.758 554.047 510.752 564.581L519.209 549.981C532.53 526.638 536.766 527.556 562.499 525.583L596.244 522.964L628.945 520.414C631.996 520.167 635.431 519.929 638.494 519.629C652.21 518.285 665.111 517.539 668.843 534.288C670.488 541.672 667.061 545.181 663.831 551.526C654.446 567.818 645.319 584.31 635.779 600.514C644.176 605.575 649.411 610.058 651.667 620.162C658.123 649.083 638.41 681.691 609.201 688.215C600.865 690.079 594.373 689.313 586.236 687.35C578.4 697.72 569.206 699.041 557.076 700.397C567.948 706.859 574.285 712.948 580.193 724.405C589.828 712.525 604.456 699.773 619.25 694.89C636.02 689.355 655.309 691.6 669.015 703.229C709.705 737.752 657.914 798.205 629.459 823.366C610.765 838.508 593.45 845.845 568.966 839.5C526.6 828.522 483.087 827.064 439.565 827.026C426.263 850.274 413.201 866.711 388.066 876.582L386.86 877.047C375.557 879.767 368.035 879.607 357.07 877.158L355.998 876.914L355.061 876.589C345.463 873.214 338.52 869.258 329.255 864.769C321.238 860.885 312.373 858.173 303.821 855.762C292.652 852.612 282.664 853.073 271.252 852.391C240.495 850.553 215.972 843.425 194.463 820.353C192.236 817.701 189.484 814.596 187.585 811.777C179.874 811.612 169.525 809.416 161.918 807.882C122.434 799.916 83.9042 781.288 55.7612 752.098C-1.33177 692.655 -16.2972 598.15 22.3325 524.878C32.4635 505.663 51.1193 481.548 75.0923 481.956C95.708 482.307 110.108 499.518 109.011 519.653C108.064 537.044 100.094 551.375 94.9419 567.677C79.739 610.359 78.0089 655.904 103.121 695.44C119.975 721.974 139.088 736.056 167.827 748.376C166.776 705.594 178.246 670.657 197.377 632.666C209.761 608.073 222.171 585.846 238.873 563.722C248.959 550.361 258.303 534.981 270.051 523.026C267.793 515.4 269.708 509.485 271.192 501.866C261.947 497.479 252.406 493.813 243.217 489.29C208.543 472.223 176.353 449.034 151.193 419.532C147.115 414.749 144.647 411.758 139.6 407.843C84.6571 365.214 90.3343 274.666 144.76 234.089C141.892 168.772 148.37 103.866 168.606 41.5089ZM717.214 848.094C717.079 848.248 716.935 848.401 716.783 848.551C716.935 848.401 717.079 848.248 717.214 848.094ZM717.513 842.066C717.76 842.367 717.964 842.672 718.123 842.982C717.964 842.672 717.76 842.367 717.513 842.066ZM119.111 827.778V827.779V827.778Z" fill="#444244"/>
<path d="M290.161 362.035C286.49 335.24 293.399 309.3 312.024 289.354C331.766 268.213 364.287 262.609 387.719 281.042C391.681 284.159 395.039 288.062 398.655 291.542C401.55 295.881 404.037 299.67 406.674 304.194C408.377 308.267 410.845 313.978 412.003 318.116C418.715 342.103 416.716 367.538 409.754 391.121C413.128 384.364 418.867 375.288 423.046 368.891C432.161 354.939 446.556 328.348 463.014 322.931C489.649 314.164 502.581 351.654 506.637 371.054C507.035 367.451 507.471 356.756 507.416 353.018L508.196 351.88C507.588 342.589 513.709 322.222 516.785 313.049C522.93 299.598 532.306 282.943 547.05 278.254C580.935 267.476 595.398 302.511 597.995 328.38C598.147 336.662 598.198 343.831 597.455 352.129C593.299 373.693 584.946 393.936 566.58 407.183C584.763 401.882 608.566 404.861 614.827 425.748C615.146 426.812 615.097 427.482 614.824 428.553C614.516 428.791 614.209 429.029 613.901 429.267C604.945 430.577 596.313 431.484 587.821 434.905C592.29 434.967 613.068 434.643 615.616 435.364C613.824 440.515 612.124 444.43 609.364 449.187L606.435 453.107C599.477 452.015 595.065 451.904 587.991 451.997C593.367 455.381 595.783 456.636 601.796 458.597C527.024 525.939 408.217 532.552 315.317 506.382C294.421 500.496 277.886 494.114 262.947 477.164C260.542 474.435 253.187 465.902 252.874 462.515L253.301 461.961C245.662 463.354 232.802 462.182 225.025 461.1C233.132 457.897 243.057 458.229 249.884 456.275C247.546 454.665 247.203 448.621 246.802 445.877C246.914 441.201 246.616 438.095 247.712 433.503C248.781 431.301 250.039 429.265 251.284 427.159C246.806 425.114 235.63 423.349 229.238 420.895C235.164 420.453 239.576 420.46 245.496 420.518L249.11 420.692C251 421.32 252.152 421.08 254.19 420.966C268.982 400.237 294.655 400.11 317.055 406.783C306.805 399.346 300.872 391.011 295.087 380.023C292.63 373.41 291.36 368.98 290.161 362.035Z" fill="#FEFEFE"/>
<path d="M508.196 351.88C508.291 351.747 508.387 351.614 508.483 351.481C513.099 333.036 520.797 309.697 540.853 302.924C558.858 297.634 570.44 315.686 573.803 330.426C578.883 352.69 574.786 379.027 563.586 398.754C555.441 413.1 544.323 418.329 528.142 414.387C517.402 410.208 514.553 403.403 511.143 393.145C507.715 386.603 507.032 378.286 506.637 371.054C507.035 367.451 507.471 356.756 507.416 353.018L508.196 351.88Z" fill="#BBF487"/>
<path d="M511.143 393.145C509.762 377.531 510.42 365.969 516.653 351.487C519.403 343.422 528.589 330.486 538.169 330.413C552.359 330.304 555.053 352.194 555.147 362.488C555.29 378.171 548.106 413.037 528.142 414.387C517.402 410.208 514.553 403.403 511.143 393.145Z" fill="#383739"/>
<path d="M542.592 340.957C554.786 340.856 553.612 363.233 543.003 368.254C531.697 367.717 531.402 346.962 542.592 340.957Z" fill="#FEFEFE"/>
<path d="M245.496 420.518L249.11 420.692C251 421.32 252.152 421.08 254.19 420.966C271.186 424.132 286.556 427.543 302.307 435.166C281.999 434.425 268.704 428.767 251.284 427.159C246.806 425.114 235.63 423.349 229.238 420.895C235.164 420.453 239.576 420.46 245.496 420.518Z" fill="#383739"/>
<path d="M249.884 456.275C265.698 454.428 281.254 454.348 296.881 457.543C285.093 459.756 265.303 462.533 253.301 461.961C245.662 463.354 232.802 462.182 225.025 461.1C233.132 457.897 243.057 458.229 249.884 456.275Z" fill="#383739"/>
<path d="M372.991 419.141C353.947 426.227 329.681 413.201 323.843 394.161C316.76 371.065 318.107 355.245 327.811 333.986C349.004 287.56 389.87 289.384 407.079 336.966C412.709 352.546 415.232 373.955 407.975 389.734C403.108 400.317 393.654 411.622 382.197 415.579L381.584 415.785C378.051 417.525 376.769 418.012 372.991 419.141Z" fill="#BBF487"/>
<path d="M372.991 419.141C337.738 416.703 343.974 345.315 370.868 334.177C381.059 329.956 391.629 338.049 394.81 347.016C396.899 353.03 397.197 354.094 397.068 360.519L397.614 357.055L397.982 356.873L397.568 357.403L398.348 357.658C401.109 376.543 397.555 403.144 381.584 415.785C378.051 417.525 376.769 418.012 372.991 419.141Z" fill="#383739"/>
<path d="M397.068 360.519C396.987 362.459 395.619 366.769 394.239 368.192C381.096 381.743 373.97 354.636 382.756 346.294C387.095 342.174 390.645 343.107 394.81 347.016C396.899 353.03 397.197 354.094 397.068 360.519Z" fill="#FEFEFE"/>
<path d="M473.854 405.195C485.758 403.797 510.414 405.557 496.95 423.631C492.445 429.678 486.742 432.604 480.125 435.822C479.782 445.494 478.757 448.897 474.714 457.669C477.247 460.832 480.348 463.996 484.362 465.121C496.375 468.486 502.96 449.446 507.348 446.893C519.881 447.908 491.808 491.179 469.481 464.311C462.464 471.159 455.921 474.42 446.455 476.35C410.334 481.587 394.214 444.321 405.184 442.772C405.649 442.926 407.373 443.478 407.6 443.838C410.995 449.343 412.496 454.669 417.15 459.485C429.677 472.448 452.351 471.478 464.828 458.917C471.92 451.777 474.897 444.107 475.058 434.095C469.628 430.343 449.499 420.446 455.819 412.393C459.829 407.282 467.673 405.89 473.854 405.195Z" fill="#383739"/>
<path d="M207.715 347.076C207.29 349.159 206.157 351.689 205.4 353.7C198.737 371.469 185.075 390.185 165.204 393.568C134.502 398.794 115.677 369.718 111.752 342.923C107.807 315.998 112.943 286.953 128.708 264.429C135.589 254.598 145.669 247.927 157.53 246.244C164.645 245.235 174.781 245.818 180.694 250.271C204.706 262.631 214.443 301.07 211.402 325.935C211.49 332.308 209.453 340.951 207.715 347.076Z" fill="#BBF487"/>
<path d="M132.147 293.595C135.019 294.233 137.814 292.417 138.39 289.538C138.966 286.659 137.104 283.808 134.232 283.17C131.361 282.532 128.566 284.348 127.99 287.227C127.414 290.106 129.276 292.957 132.147 293.595Z" fill="#141414"/>
<path d="M166.637 343.533C164.037 346.703 159.441 347.992 154.043 346.792C148.645 345.593 144.498 342.311 142.791 338.234L132.311 335.905C133.049 345.048 140.69 353.14 152.563 355.778C163.767 358.268 173.591 354.216 177.581 345.966L166.643 343.535L166.637 343.533Z" fill="#141414"/>
<path d="M176.606 338.063L156.418 333.576C145.287 331.103 137.798 321.249 139.726 311.612C141.653 301.975 152.278 296.147 163.409 298.621C174.541 301.094 182.029 310.948 180.102 320.585L176.606 338.063ZM162.166 304.836C154.994 303.243 148.147 306.999 146.905 313.208C145.663 319.417 150.489 325.767 157.661 327.361L170.67 330.251L172.922 318.989C174.164 312.778 169.338 306.43 162.166 304.836Z" fill="#141414" stroke="#141414" stroke-width="5"/>
<path d="M180.694 250.271C204.706 262.631 214.443 301.07 211.402 325.935C210.648 324.536 210.486 321.643 210.107 319.71C208.93 293.672 200.461 267.922 181.028 250.774C180.917 250.607 180.805 250.439 180.694 250.271Z" fill="#FEFEFE"/>
<path d="M210.107 319.71C210.486 321.643 210.648 324.536 211.402 325.935C211.49 332.308 209.453 340.951 207.715 347.076C207.315 343.159 209.11 335.097 209.59 330.746C210.077 326.322 210.164 324.316 210.107 319.71Z" fill="#F5FFE3"/>
<path d="M402.89 739.706C411.076 739.33 420.438 741.593 425.281 748.713C431.538 757.911 427.42 772.111 425.458 782.209C433.163 771.36 437.208 762.038 432.407 748.823C434.99 751.195 438.896 754.95 440.442 757.985C446.265 769.417 443.453 788.467 440.307 800.044C434.124 822.794 418.058 851.242 397.019 863.249C383.264 871.099 371.795 872.703 356.697 868.634C346.201 864.855 338.787 859.784 335.964 848.399C330.281 825.478 336.837 798.744 348.245 778.57C354.982 766.656 366.814 751.977 380.305 747.687C388.94 744.961 396.207 752.419 397.733 760.46C399.537 769.959 395.658 777.733 390.75 785.584C406.234 774.199 409.988 750.193 390.394 741.342C394.937 740.491 398.265 740.134 402.89 739.706Z" fill="#FEFEFE"/>
<path d="M369.198 83.182C415.291 79.552 473.154 88.775 510.459 117.938C517.762 122.181 530.914 133.913 536.593 139.992C437.657 79.002 301.476 100.427 234.196 197.9C226.857 208.532 221.568 217.3 215.327 228.729C201.202 222.665 193.519 221.512 178.265 221.914C185.635 204.186 200.048 183.108 211.799 167.927C248.808 120.116 309.258 89.672 369.198 83.182Z" fill="#BBF487"/>
<path d="M369.198 83.182C415.291 79.552 473.154 88.775 510.459 117.938C508.526 117.912 487.981 108.403 483.492 106.666C452.054 94.5 418.985 86.908 385.314 84.664C379.985 84.309 374.444 84.574 369.49 83.858L369.198 83.182Z" fill="#FEFEFE"/>
<path d="M631.102 700.256C637.333 699.806 645.594 699.769 651.171 702.72C670.647 713.026 660.963 732.743 654.246 746.78C664.921 737.302 671.518 726.246 667.59 711.592C671.43 716.194 674.718 719.813 675.627 726.015C678.407 746.489 667.889 766.483 655.716 782.413C642.765 799.361 626.702 818.381 607.533 828.418C602.579 831.012 597.054 832.184 591.626 833.005C581.711 833.519 575.629 832.866 566.33 829.514C541.145 795.867 581.905 718.239 618.261 705.418C625.961 702.703 632.73 708.813 634.237 716.173C636.398 726.732 631.95 734.982 626.805 743.696C640.706 733.059 646.975 713.615 631.473 701.3L630.863 700.82L631.102 700.256Z" fill="#FEFEFE"/>
<path d="M524.078 685.592C512.971 696.427 500.227 704.418 485.069 708.347C472.493 711.612 452.51 713.124 440.98 705.996C421.208 693.772 419.596 652.802 431.09 635.104C442.472 617.578 471.264 606.164 490.715 601.87L485.129 613.788L480.453 614.663C479.962 617.098 479.227 619.811 478.628 622.248C495.557 619.907 526.85 613.961 537.188 632.619C538.436 634.872 539.084 637.939 539.639 640.482C530.396 652.808 506.399 654.935 492.249 656.205C508.801 663.013 525.59 660.205 539.648 649.404C536.096 669.765 532.627 675.022 513.543 683.561L513.629 684.229C510.048 686.336 502.381 687.073 498.319 689.387C499.755 690.451 504.415 689.72 507.248 690.972C512.465 691.037 519.499 687.795 524.078 685.592Z" fill="#FEFEFE"/>
<path d="M488.177 689.833C496.74 687.986 505.165 686.132 513.543 683.561L513.629 684.229C510.048 686.336 502.381 687.073 498.319 689.387C499.755 690.451 504.415 689.72 507.248 690.972C500.638 692.264 494.593 691.515 488.177 689.833Z" fill="#383739"/>
<path d="M180.213 230.706C215.708 227.776 237.23 259.71 245.055 290.295C256.585 335.368 239.187 396.39 190.076 410.344C175.606 414.456 158.893 409.598 146.521 401.977C143.633 399.94 140.878 397.836 138.063 395.7C162.307 406.773 185.913 397.067 200.368 375.837C215.854 353.211 220.616 322.706 215.771 296.044C211.223 271.019 194.296 240.776 165.752 239.75C160.315 239.555 155.745 240.41 150.423 241.436C159.245 234.223 169.011 231.724 180.213 230.706Z" fill="#BBF487"/>
<path d="M205.497 54.0959C223.325 63.2809 252.331 93.6909 264.253 109.724C244.152 121.419 227.599 137.027 211.835 153.9C201.561 165.176 195.117 175.222 187.271 188.113C185.322 143.835 192.465 96.3729 205.497 54.0959Z" fill="#FEFEFE"/>
<path d="M280.193 505.21C328.323 522.248 372.541 528.894 423.268 529.893C425.884 540.14 424.919 546.989 420.243 556.339C418.847 558.016 410.965 557.788 408.5 557.816C378.633 558.153 347.943 552.996 319.951 542.266C307.22 537.385 286.279 528.361 278.574 516.623C276.871 513.47 278.778 508.387 280.193 505.21Z" fill="#BBF487"/>
<path d="M617.838 605.696C637.11 604.974 646.811 619.075 643.371 637.243C639.559 660.315 618.805 684.195 593.441 679.231C579.364 676.477 577.14 666.009 580.312 653.978C585.419 660.768 588.982 662.593 596.899 665.012C601.707 665.891 608.115 666.888 612.789 665.122L612.824 664.485C609.876 662.959 607.677 663.105 604.676 662.153C601.718 661.117 598.717 659.835 595.916 658.429C576.975 648.922 586.677 633.59 593.991 620.714C602.103 635.635 618.295 635.252 632.626 632.117C625.431 630.701 593.947 624.767 604.069 610.729C606.637 607.168 613.576 606.16 617.838 605.696Z" fill="#FEFEFE"/>
<path d="M484.33 717.635L485.759 717.424C486.447 718.11 486.6 718.153 486.477 719.274C482.774 753.181 470.503 778.436 447.647 803.55C451.712 790.255 454.586 770.35 448.533 757.331C442.413 744.167 432.907 738.881 420.12 733.856L419.455 733.637C402.301 728.111 387.269 732.465 371.947 740.255C367.88 732.672 365.162 727.799 359.839 720.852C389.971 726.809 415.968 728.23 445.796 717.722C460.083 721.054 470.123 720.428 484.33 717.635Z" fill="#FEFEFE"/>
<path d="M354.037 562.214C372.36 565.766 389.343 566.714 407.908 566.506C391.954 581.21 390.776 604.99 409.302 617.881C410.928 618.904 414.796 620.683 416.646 621.625C402.478 621.356 386.905 618.269 374.075 612.037C366.427 608.322 358.095 599.335 352.966 592.7C352.941 582.485 353.534 572.411 354.037 562.214Z" fill="#FEFEFE"/>
<path d="M424.337 567.167C437.912 565.004 450.672 574.246 452.852 587.817C455.031 601.389 445.806 614.161 432.237 616.358C418.644 618.558 405.844 609.313 403.661 595.717C401.477 582.121 410.739 569.333 424.337 567.167Z" fill="#BBF487"/>
<path d="M414.552 580.886C415.905 580.886 416.978 579.792 416.949 578.443C416.92 577.094 415.801 576 414.449 576C413.096 576 412.023 577.094 412.052 578.443C412.081 579.792 413.2 580.886 414.552 580.886Z" fill="#141414"/>
<path d="M435.008 599.855C434.157 601.536 432.224 602.573 429.682 602.573C427.14 602.573 424.952 601.514 423.78 599.855H418.845C420.088 603.883 424.323 606.752 429.914 606.752C435.19 606.752 439.193 603.955 440.161 599.855H435.011H435.008Z" fill="#141414"/>
<path d="M438.936 596.406H429.43C424.188 596.406 419.846 592.731 419.749 588.215C419.653 583.698 423.84 580.024 429.081 580.024C434.323 580.024 438.665 583.698 438.761 588.215L438.936 596.406ZM429.143 582.937C425.766 582.937 423.068 585.305 423.13 588.215C423.192 591.125 425.991 593.493 429.368 593.493H435.493L435.381 588.215C435.319 585.304 432.52 582.937 429.143 582.937Z" fill="#141414"/>
<path d="M437.801 588.215C437.719 584.357 433.952 580.984 429.102 580.984C424.252 580.984 420.628 584.357 420.71 588.215C420.792 592.072 424.559 595.446 429.409 595.446H437.955L437.801 588.215ZM434.421 588.215C434.373 585.963 432.149 583.897 429.164 583.897C426.178 583.897 424.042 585.964 424.09 588.215C424.138 590.465 426.362 592.533 429.347 592.533H434.513L434.421 588.215ZM436.474 594.453H429.388C425.62 594.453 422.246 591.784 422.17 588.215C422.094 584.646 425.354 581.977 429.123 581.977C432.891 581.977 436.265 584.645 436.341 588.215L436.474 594.453ZM439.916 597.366H429.45C423.817 597.366 418.899 593.39 418.789 588.215C418.679 583.039 423.428 579.064 429.061 579.064C434.694 579.064 439.611 583.039 439.722 588.215L439.916 597.366Z" fill="#141414"/>
<path d="M549.625 535.849L618.379 530.48C629.126 529.631 639.974 528.383 650.73 528.197C654.273 528.135 658.177 530.005 658.527 533.857C655.999 536.961 644.305 536.513 639.881 536.859L601.691 539.877C596.345 540.289 555.62 544.17 553.103 542.333C553.277 541.563 553.286 541.033 553.353 540.247C552.599 538.103 551.359 537.35 549.625 535.849Z" fill="#727577"/>
<path d="M481.712 524.215C482.168 524.224 481.83 524.187 482.596 524.724C485.254 547.51 463.483 552.063 446.179 554.627C445.341 552.59 447.491 547.548 447.612 544.255C447.817 538.736 447.109 534.021 446.346 528.594C457.673 526.93 469.889 525.918 481.712 524.215Z" fill="#BBF487"/>
<path d="M354.408 202.197C364.311 201.177 373.569 203.433 381.52 209.483C387.665 214.16 390.135 219.48 393.228 226.331C381.76 219.031 373.326 216.184 359.69 215.082C344.355 214.664 334.628 219.027 321.41 226.15C328.41 212.657 339.337 204.411 354.408 202.197Z" fill="#383739"/>
<path d="M470.776 557.94C471.491 558.097 471.084 557.928 471.831 558.736C473.722 568.13 474.574 587.626 474.084 597.224C468.508 599.419 464.016 601.263 458.6 603.84C460.012 599.926 460.258 598.702 460.911 594.615C461.558 580.833 455.922 572.49 445.333 564.344C455.254 562.979 461.565 562.042 470.776 557.94Z" fill="#FEFEFE"/>
<path d="M496.716 611.075C500.345 602.221 509.882 585.842 514.844 577.011C520.467 567.007 529.065 550.611 535.515 541.902C537.332 545.606 538.61 546.69 542.798 547.234C542.384 548.065 540.063 551.154 539.354 552.305C537.296 555.641 535.385 558.885 533.441 562.294L505.847 610.948L496.716 611.075Z" fill="#727577"/>
<path d="M520.603 232.146C533.442 198.436 568.955 198.212 584.266 231.644C573.127 224.538 569.862 223.2 556.598 221.011L554.398 220.71C543.886 218.522 535.094 222.608 526.58 228.186L520.603 232.146Z" fill="#383739"/>
<path d="M195.217 8.67008C200.089 8.23028 205.836 9.83348 210.358 11.9561C240.147 25.9394 267.683 52.377 287.616 78.281C290.353 81.838 295.88 89.509 297.329 93.199C296.837 93.008 296.008 92.736 295.682 92.332C272.048 63.079 244.032 35.8929 211.8 16.2575C206.563 13.0675 200.957 11.4207 195.607 8.86018L195.217 8.67008Z" fill="#FEFEFE"/>
<path d="M571.06 128.276C570.834 118.291 570.137 108.348 569.08 98.417C567.7 85.465 559.3 20.5589 550.993 12.6514C549.804 11.5201 548.415 10.5322 547.107 9.54233C547.874 8.82123 547.555 8.78483 548.596 8.71503C556.157 8.20833 559.288 21.3778 560.619 26.4092C570.605 64.183 573.016 103.48 572.391 142.388C572.493 143.941 572.226 151.871 571.276 152.719C570.885 145.053 570.869 135.956 571.06 128.276Z" fill="#FEFEFE"/>
<path d="M571.06 128.276C571.662 132.266 571.147 140.189 572.391 142.388C572.493 143.941 572.226 151.871 571.276 152.719C570.885 145.053 570.869 135.956 571.06 128.276Z" fill="#B9B7B8"/>
<path d="M622.59 292.259C623.51 292.914 623.659 293.033 624.256 294.122C633.629 311.231 636.479 339.339 632.203 357.896C631.92 358.439 632.128 358.171 631.488 358.621C628.219 352.867 622.362 301.016 622.59 292.259Z" fill="#80AF7C"/>
<path d="M248.77 703.499C263.122 693.924 284.947 688.513 301.982 692.021C315.75 694.856 329.195 702.603 339.785 711.636C337.917 711.217 336.198 710.212 334.469 709.331C325.277 703.193 311.752 698.805 300.906 696.743C282.299 693.205 266.203 697.161 248.77 703.499Z" fill="#FEFEFE"/>
<path d="M433.618 527.547C435.333 527.452 436.179 527.228 437.695 528.023C443.119 534.405 439.793 554.811 434.224 561.038C432.426 561.058 432.352 561.108 430.529 560.651C426.827 557.321 432.107 549.508 432.821 544.468C433.562 539.241 430.648 531.171 433.618 527.547Z" fill="#B9B7B8"/>
<path d="M535.515 541.902C538.916 537.481 543.987 534.63 549.625 535.849C551.359 537.35 552.599 538.103 553.353 540.247C553.286 541.033 553.277 541.563 553.103 542.333C549.075 543.025 546.213 545.082 542.798 547.234C538.61 546.69 537.332 545.606 535.515 541.902Z" fill="#FEFEFE"/>
</svg>
