<svg width="33" height="32" viewBox="0 0 33 32" fill="none" xmlns="http://www.w3.org/2000/svg">
<g clip-path="url(#clip0_30_505)">
<path d="M29.6667 20C29.6667 25.16 25.4934 29.3333 20.3334 29.3333L21.7334 27" stroke="#141414" stroke-width="2" stroke-linecap="round" stroke-linejoin="round"/>
<path d="M3.00006 12.0001C3.00006 6.84008 7.17339 2.66675 12.3334 2.66675L10.9334 5.00008" stroke="#141414" stroke-width="2" stroke-linecap="round" stroke-linejoin="round"/>
<path d="M29.6667 5.60008V5.74675C29.6667 6.12008 29.3734 6.41341 29 6.41341H17C16.6267 6.41341 16.3334 6.12008 16.3334 5.74675V5.60008C16.3334 3.25341 16.92 2.66675 19.2934 2.66675H26.7067C29.08 2.66675 29.6667 3.25341 29.6667 5.60008Z" fill="#141414"/>
<path d="M17 7.74683C16.6267 7.74683 16.3334 8.04016 16.3334 8.41349V9.74683V11.0668C16.3334 13.4135 16.92 14.0002 19.2934 14.0002H26.7067C29.08 14.0002 29.6667 13.4135 29.6667 11.0668V9.74683V8.41349C29.6667 8.04016 29.3734 7.74683 29 7.74683H17Z" fill="#141414"/>
<path d="M16.3334 20.9333V21.08C16.3334 21.4533 16.0401 21.7467 15.6667 21.7467H3.66673C3.29339 21.7467 3.00006 21.4533 3.00006 21.08V20.9333C3.00006 18.5867 3.58673 18 5.96006 18H13.3734C15.7467 18 16.3334 18.5867 16.3334 20.9333Z" fill="#141414"/>
<path d="M3.66673 23.0801C3.29339 23.0801 3.00006 23.3734 3.00006 23.7467V25.0801V26.4001C3.00006 28.7467 3.58673 29.3334 5.96006 29.3334H13.3734C15.7467 29.3334 16.3334 28.7467 16.3334 26.4001V25.0801V23.7467C16.3334 23.3734 16.0401 23.0801 15.6667 23.0801H3.66673Z" fill="#141414"/>
</g>
<defs>
<clipPath id="clip0_30_505">
<rect width="32" height="32" fill="white" transform="translate(0.333374)"/>
</clipPath>
</defs>
</svg>
