<svg width="32" height="32" viewBox="0 0 32 32" fill="none" xmlns="http://www.w3.org/2000/svg">
<path d="M29.3333 28.3333C29.3333 28.8799 28.88 29.3333 28.3333 29.3333H3.66666C3.12 29.3333 2.66666 28.8799 2.66666 28.3333C2.66666 27.7866 3.12 27.3333 3.66666 27.3333H28.3333C28.88 27.3333 29.3333 27.7866 29.3333 28.3333Z" fill="#141414"/>
<path d="M20.52 6.0266L6.2 20.3466C5.65334 20.8933 4.77334 20.8933 4.24 20.3466H4.22667C2.37334 18.4799 2.37334 15.4666 4.22667 13.6133L13.76 4.07993C15.6267 2.21326 18.64 2.21326 20.5067 4.07993C21.0533 4.59993 21.0533 5.49327 20.52 6.0266Z" fill="#141414"/>
<path d="M27.76 11.3202L23.6933 7.25351C23.1467 6.70684 22.2667 6.70684 21.7333 7.25351L7.41333 21.5735C6.86667 22.1068 6.86667 22.9868 7.41333 23.5335L11.48 27.6135C13.3467 29.4668 16.36 29.4668 18.2267 27.6135L27.7467 18.0802C29.64 16.2135 29.64 13.1868 27.76 11.3202ZM17.0133 23.3602L15.4 24.9868C15.0667 25.3202 14.52 25.3202 14.1733 24.9868C13.84 24.6535 13.84 24.1068 14.1733 23.7602L15.8 22.1335C16.12 21.8135 16.68 21.8135 17.0133 22.1335C17.3467 22.4668 17.3467 23.0402 17.0133 23.3602ZM22.3067 18.0668L19.0533 21.3335C18.72 21.6535 18.1733 21.6535 17.8267 21.3335C17.4933 21.0002 17.4933 20.4535 17.8267 20.1068L21.0933 16.8402C21.4133 16.5202 21.9733 16.5202 22.3067 16.8402C22.64 17.1868 22.64 17.7335 22.3067 18.0668Z" fill="#141414"/>
</svg>
