<svg width="815" height="894" viewBox="0 0 815 894" fill="none" xmlns="http://www.w3.org/2000/svg">
<path d="M155.986 893.158H155.987H155.986ZM385.082 1.14118C392.879 -2.834 415.933 13.143 422.375 17.7115C470.381 51.7533 503.982 99.3825 528.681 152.171C564.324 175.249 580.014 198.264 594.975 237.784C599.938 250.892 606.397 266.047 613.433 278.188C625.949 299.786 640.763 314.211 665.172 320.726C663.539 337.479 661.221 348.138 656.322 364.243C658.17 364.098 659.343 364.086 661.2 364.117C666.437 363.346 674.913 362.989 680.311 363.018C674.643 365.037 668.006 366.804 662.037 367.65C659.416 368.473 657.532 368.776 654.853 369.266C651.572 378.16 648.524 386.33 644.437 394.9C652.107 396.28 658.427 397.262 665.795 399.931L641.864 400.06C620.898 438.642 591.47 468.058 555.087 491.655C554.222 492.217 553.269 492.835 553.046 493.809C556.167 493.768 559.712 492.19 562.475 490.822C574.85 484.694 586.937 478.596 598.709 471.33C622.534 456.623 670.527 421.135 679.791 393.941C682.282 386.629 684.392 379.155 687.409 372.034C695.195 353.659 708.7 338.104 726.686 329.166C742.054 321.528 759.606 319.327 776.018 324.946C790.404 329.87 802.039 340.503 808.573 354.193C818.408 374.798 814.884 396.258 807.452 416.983C800.928 435.177 790.887 449.896 778.978 464.894C740.931 512.808 686.802 551.08 631.674 576.941C616.213 584.194 600.326 590.482 584.172 596.01C578.409 597.983 572.494 600.265 566.497 601.396C568.512 629.449 565.89 650.996 559.981 678.199C572.88 682.21 582.819 690.113 589.844 701.701C609.609 734.308 603.677 778.752 583.983 809.941C587.97 809.755 591.656 809.616 595.639 809.919C618.697 811.674 637.428 833.172 638.054 855.93L638.07 857.015C637.957 860.15 637.87 863.071 635.359 865.284C625.366 874.094 570.857 872.123 557.349 871.934C550.599 881.109 545.091 884.032 533.802 885.561C524.75 886.788 515.807 887.041 506.685 887.054C486.361 887.5 452.762 885.624 439.435 867.541L435.08 868.061C434.82 871.311 434.404 874.47 432.858 877.391C429.989 882.814 424.442 885.131 418.854 886.779C410.544 889.229 401.203 889.356 392.591 890.044C382.282 890.865 371.885 891.674 361.546 891.912C329.187 892.656 243.447 891.794 216.828 876.41C212.09 873.672 210.079 869.643 208.756 864.572C209.403 861.702 209.818 860.603 210.869 857.919L213.56 853.615C209.516 846.34 206.303 839.796 202.689 832.268C129.053 829.035 62.3247 793.953 26.1119 728.442C0.89922 683.808 -6.00155 627.737 7.77893 578.32C15.0486 552.251 30.2995 522.128 54.2985 507.867C68.4454 499.461 89.5727 501.172 97.6637 517.232C103.569 528.953 102.914 543.779 99.9371 556.26C98.2571 562.975 95.3807 569.38 93.5787 576.069C80.4597 618.81 77.9403 665.208 100.304 705.571C114.986 732.071 136.118 752.528 164.169 764.807C172.305 768.369 180.509 770.702 189.016 773.236C188.331 708.913 222.979 658.231 267.726 615.029C284.329 599 304.088 581.714 315.869 561.772C320.967 553.14 322.695 545.282 323.011 535.401C307.275 533.683 292.367 533.183 276.33 530.331C231.897 522.431 187.256 509.815 148.465 486.13C140.531 481.287 133.937 477.265 126.85 471.219C131.607 469.537 150.296 464.17 152.291 460.289C151.444 458.588 147.169 456.927 145.116 455.928C132.629 449.85 121.582 444.372 111.268 434.728C137.747 422.579 160.259 393.953 167.051 365.773C161.645 353.047 156.201 342.532 150.943 328.906C131.241 277.855 120.572 223.472 118.969 168.571C118.408 149.369 117.717 102.247 130.313 86.647C132.905 83.6551 138.403 82.4953 142.131 82.8023C195.608 87.2155 250.845 124.45 287.612 161.023C308.504 146.852 330.346 139.606 354.385 133.121C352.655 101.994 357.584 64.4395 367.096 34.7818C370.347 25.641 376.463 5.53562 385.082 1.14118ZM69.8776 878.295H69.8785H69.8776ZM69.0026 875.234H69.0035H69.0026Z" fill="#3E3D3F"/>
<path d="M661.2 364.117C666.437 363.346 674.913 362.989 680.311 363.018C674.643 365.037 668.006 366.804 662.037 367.65L661.871 367.263C663.316 366.194 667.643 365.689 669.755 365.299L669.911 364.858C665.85 363.357 665.339 365.477 661.2 364.117Z" fill="#2F2D32"/>
<path d="M433.752 860.276C435.652 862.466 437.645 865.202 439.435 867.541L435.08 868.061C434.882 865.365 434.296 862.92 433.752 860.276Z" fill="#F8FFE9"/>
<path d="M509.32 288.288C510.935 269.669 519.678 241.776 542.274 244.959C577.013 249.852 596.27 302.203 591.34 332.886C589.849 342.161 588.852 349.9 584.62 357.908C587.682 355.545 590.847 352.859 594.389 351.285C613.995 342.576 630.185 351.204 641.104 367.659C635.821 368.643 631.454 369.423 626.545 371.662L625.417 373.494C625.548 373.888 625.739 374.553 625.921 374.893C632.284 374.43 635.93 373.539 642.117 372.029C641.253 381.404 640.255 386.093 636.242 394.729C633.178 395.273 625.451 396.254 623.671 398.348C625.275 400.145 628.954 399.966 631.45 400.106L632.633 400.17C599.572 458.615 544.245 497.107 480.193 514.809C430.815 528.456 350.988 535.339 305.235 509.111C295.198 503.357 287.377 496.363 279.613 487.87C273.846 489.708 265.983 491.458 259.97 492.958C264.68 489.34 271.195 486.074 276.884 484.304C271.235 475.186 267.472 462.749 270.411 452.091C267.744 452.285 262.21 453.276 260.29 451.528C261.818 449.622 269.32 448.108 271.968 447.148C284.726 421.401 317.756 410.896 344.675 415.935C327.037 404.894 307.985 384.835 305.34 364.07C293.396 270.295 403.168 255.597 425.247 345.138C426.486 350.163 427.322 355.22 428.251 360.349L428.546 359.725C430.329 358.94 428.627 356.475 429.945 354.189C432.057 335.528 429.44 313.259 432.504 294.316C433.835 286.203 436.32 276.473 443.49 271.547C451.597 265.977 464.504 266.993 471.481 273.997C488.688 291.268 498.585 314.916 512.104 334.964C511.893 331.425 510.63 325.428 510.221 321.437C509.174 311.204 508.256 298.461 509.32 288.288Z" fill="#F8FFE9"/>
<path d="M509.32 288.288L509.676 291.228C511.128 289.487 511.731 282.932 514.103 279.487C517.283 274.869 521.159 268.992 527.384 267.992C551.587 264.104 569.256 299.957 573.01 318.663C576.045 333.783 576.639 349.625 569.028 362.815C564.031 371.184 552.162 376.277 543.154 371.201C539.684 369.656 538.25 368.663 535.372 366.413C524.438 361.723 518.593 344.831 512.564 335.656L512.104 334.964C511.893 331.425 510.63 325.428 510.221 321.437C509.174 311.204 508.256 298.461 509.32 288.288Z" fill="#B9F08D"/>
<path d="M519.177 319.373C515.818 311.614 512.193 291.765 526.246 294.017C556.36 294.371 570.861 369.445 543.154 371.201C539.684 369.656 538.25 368.663 535.372 366.413C525.724 355.798 517.461 333.741 519.177 319.373Z" fill="#2F2D32"/>
<path d="M519.177 319.373C515.818 311.614 512.193 291.765 526.246 294.017C540.015 308.297 530.607 337.196 519.177 319.373Z" fill="#F8FFE9"/>
<path d="M323.74 443.682C325.809 424.362 362.54 421.932 371.008 434.127C388.931 459.941 327.803 477.238 324.038 446.133C325.357 445.782 326.038 445.769 326.99 444.831C325.921 443.725 325.617 444.02 323.74 443.682Z" fill="#FEBDC5"/>
<path d="M625.921 374.893C625.62 381.194 613.725 389.342 607.685 390.601C599.879 392.228 589.784 390.514 588.106 381.473C584.45 361.764 622.62 348.352 626.545 371.662L625.417 373.494C625.548 373.888 625.739 374.553 625.921 374.893Z" fill="#FEBDC5"/>
<path d="M271.968 447.148C284.665 442.547 310.2 441.78 323.74 443.682C325.617 444.02 325.921 443.725 326.99 444.831C326.038 445.769 325.357 445.782 324.038 446.133C314.492 448.044 301.292 448.895 291.397 449.983C286.35 450.539 275.017 451.995 270.411 452.091C267.744 452.285 262.21 453.276 260.29 451.528C261.818 449.622 269.32 448.108 271.968 447.148Z" fill="#2F2D32"/>
<path d="M276.884 484.304C281.158 482.724 285.211 480.492 289.486 478.918C303.397 473.794 313.556 471.649 328.201 470.28C317.591 476.773 292.145 485.061 279.613 487.87C273.846 489.708 265.983 491.458 259.97 492.958C264.68 489.34 271.195 486.074 276.884 484.304Z" fill="#2F2D32"/>
<path d="M429.945 354.189C430.06 359.756 430.146 365.43 429.655 370.978C429.206 367.676 428.539 363.606 428.251 360.349L428.546 359.725C430.329 358.94 428.627 356.475 429.945 354.189Z" fill="#2F2D32"/>
<path d="M398.689 413.178C373.034 423.812 346.142 404.633 338.557 380.398C333.069 362.864 331.136 345.397 338.611 328.076C346.967 308.714 366.934 298.052 386.771 307.575C415.998 321.919 433.463 365.643 419.565 395.774C417.278 400.732 412.071 407.931 406.664 409.415C403.323 411.401 402.388 411.915 398.689 413.178Z" fill="#B9F08D"/>
<path d="M373.589 332.179C398.961 330.074 413.608 359.42 415.425 380.922C416.424 392.746 414.751 400.633 406.664 409.415C403.323 411.401 402.388 411.915 398.689 413.178C382.397 411.777 372.115 398.638 366.559 384.361C363.603 376.764 361.102 364.554 363.6 356.604C359.538 346.476 358.311 331.119 373.589 332.179Z" fill="#2F2D32"/>
<path d="M363.6 356.604C359.538 346.476 358.311 331.119 373.589 332.179C392.096 344.081 379.97 377.526 363.6 356.604Z" fill="#F8FFE9"/>
<path d="M545.969 405.891C547.749 405.873 547.891 405.75 549.544 406.511C556.399 413.812 536.385 453.42 511.094 429.277C497.666 456.963 458.296 452.755 442.16 431.449C440.79 428.475 440.213 426.698 443.189 424.302C447.432 423.259 451.686 430.694 455.077 433.079C469.553 443.264 490.767 444.027 502.792 429.536C506.856 424.639 507.651 421.52 509.328 415.505C513.552 422.662 518.986 429.936 528.469 428.707C541.046 427.077 541.067 412.002 545.969 405.891Z" fill="#2F2D32"/>
<path d="M508.859 370.194C536.483 366.471 519.723 392.016 506.897 399.275C503.678 398.659 500.342 398.116 497.105 397.546C461.793 389.271 488.465 372.574 508.859 370.194Z" fill="#2F2D32"/>
<path d="M540.76 538.39C542.024 539.57 543.659 543.711 544.391 545.418C575.673 618.35 552.436 715.421 504.747 776.155C491.243 727.293 480.247 686.522 459.235 639.864C449.808 620.38 441.577 605.263 428.138 588.193C434.549 589.568 444.213 590.54 450.802 591.305C438.488 583.673 423.615 577.255 412.55 569.224C436.886 568.811 464.151 566.019 487.941 560.996C469.942 572.462 468.215 592.829 484.67 606.41C505.559 623.65 536.066 606.815 532.811 580.112C532.03 573.708 527.518 566.601 522.317 562.659C519.701 560.77 516.393 559.292 513.521 557.252C513.072 555.658 513.278 555.044 513.502 553.422C514.541 552.452 524.956 547.902 527.247 546.699C532.746 543.814 535.718 542.198 540.76 538.39Z" fill="#F8FFE9"/>
<path d="M806.153 394.054C804.197 415.011 790.849 439.737 776.955 455.261C774.637 457.85 769.675 463.542 766.493 464.742C729.228 479.223 679.745 445.183 683.687 404.64C684.651 394.722 695.78 369.962 701.055 361.659C718.243 334.601 756.56 318.366 785.211 337.929C795.299 344.817 799.958 352.689 804.789 363.589C795.419 360.102 789.415 362.389 782.328 368.936C781.722 366.116 781.171 363.528 780.163 360.849C772.517 340.457 748.493 341.762 737.934 358.757C733.975 365.13 730.796 372.677 733.896 380.118L734.608 380.082L734.841 380.316C738.145 383.684 738.521 386.563 743.508 391.283L741.038 392.804C735.649 397.317 731.935 401.276 729.171 407.682C725.446 416.313 725.888 430.183 732.793 437.117C755.08 459.494 794.822 436.017 785.902 405.109C794.679 405.054 800.401 400.809 805.367 394L806.153 394.054Z" fill="#F8FFE9"/>
<path d="M734.841 380.316C738.145 383.684 738.521 386.563 743.508 391.283L741.038 392.804C739.854 392.255 740.251 392.468 739.277 391.505C739.365 388.626 735.375 386.973 734.841 380.316Z" fill="#F8FFE9"/>
<path d="M733.896 380.118L734.608 380.082L734.841 380.316C735.375 386.973 739.365 388.626 739.277 391.505C735.861 388.01 734.231 385.1 733.896 380.118Z" fill="#B9F08D"/>
<path d="M156.234 125.994C188.793 137.328 227.543 171.09 250.518 196.07C246.31 200.205 243.201 203.788 239.869 208.633C231.377 204.27 196.049 191.559 188.765 198.897C187.872 202.035 190.228 204.063 192.662 205.758C201.564 211.957 211.767 216.541 221.693 220.682C214.279 221.795 210.798 222.594 203.797 225.224C199.818 227.065 192.797 230.666 192.84 235.544C196.446 242.391 211.432 239.337 217.493 237.905C205.104 253.769 195.809 272.631 187.866 291.015C166.785 238.788 152.166 182.75 156.234 125.994Z" fill="#F8FFE9"/>
<path d="M365.419 825.706C387.801 823.3 411.621 833.122 422.589 853.448C425.382 858.624 428.231 866.191 426.341 872.066C425.189 875.649 423.274 876.469 420.18 878.135C417.854 857.903 408.465 848.797 391.553 839.231L393.847 841.36C405.952 852.751 411.533 863.107 412.052 879.829C404.478 880.962 395.974 881.602 388.325 882.085C386.952 867.736 380.812 859.11 369.006 851.17C364.104 848.319 359.635 846.398 354.472 844.075L355.85 845.201C367.712 855.029 378.742 867.009 380.234 882.897C350.313 884.192 311.271 885.182 281.553 881.123C282.602 875.537 284.468 869.473 288.515 865.31C308.436 844.814 336.929 828.412 365.419 825.706Z" fill="#F8FFE9"/>
<path d="M500.825 807.636C516.345 806.157 515.043 809.927 524.024 818.924C536.614 831.536 560.998 851.02 548.666 871.24C545.525 856.06 538.877 848.245 527.679 838.277C531.94 844.453 544.465 865.974 540.271 875.356C539.259 877.62 527.644 878.162 524.275 878.43C523.168 867.647 519.674 862.092 512.158 854.47C506.952 850.08 503.466 848.404 497.482 845.264C507.689 854.583 514.89 865.06 516.2 879.004C493.297 879.186 454.981 881.618 442.566 857.69C448.84 833.077 476.421 812.077 500.825 807.636Z" fill="#F8FFE9"/>
<path d="M489.622 520.544L490.458 521C493.488 529.158 493.184 543.68 491.469 552.228C448.693 560.676 383.134 565.118 341.376 551.212C337.237 549.63 334.746 548.418 330.904 546.296C329.92 542.974 329.016 539.322 328.112 535.951C334.928 536.194 341.739 536.854 348.62 536.969C395.639 537.75 444.434 534.076 489.622 520.544Z" fill="#B9F08D"/>
<path d="M581.984 818.207C584.145 818.104 586.385 818.077 588.523 817.964C612.928 816.673 629.681 835.834 630.106 859.379C624.416 861.556 619.614 862.018 613.633 862.815C612.064 842.24 599.673 835.282 582.086 828.455C585.603 830.971 587.668 832.48 590.814 835.394C599.664 844.262 604.824 850.872 605.319 863.629C591.762 864.539 573.794 864.137 560.094 863.972C560.21 848.806 554.857 839.585 544.863 828.41C554.994 821.825 570.223 819.234 581.984 818.207Z" fill="#F8FFE9"/>
<path d="M406.289 43.7679C427.883 58.146 465.505 109.395 477.336 132.534C465.667 130.343 457.432 129.317 445.707 128.395C448.564 125.072 452.636 121.222 448.41 117.409C438.036 118.168 432.349 123.548 423.758 128.473C427.087 121.763 439.496 97.696 431.972 91.363C424.047 89.228 412.872 112.413 410.34 118.153C406.614 97.47 402.439 64.537 406.289 43.7679Z" fill="#F8FFE9"/>
<path d="M499.731 562.483C507.754 561.04 515.934 564.018 521.15 570.282C526.367 576.546 527.815 585.13 524.943 592.759C522.072 600.388 515.322 605.886 507.27 607.155C495.006 609.089 483.471 600.79 481.405 588.548C479.339 576.306 487.512 564.681 499.731 562.483Z" fill="#B9F08D"/>
<path d="M490.552 574.886C491.905 574.886 492.978 573.792 492.949 572.443C492.92 571.094 491.801 570 490.449 570C489.096 570 488.023 571.094 488.052 572.443C488.081 573.792 489.2 574.886 490.552 574.886Z" fill="#141414"/>
<path d="M511.008 593.855C510.157 595.536 508.224 596.573 505.682 596.573C503.14 596.573 500.952 595.514 499.78 593.855H494.845C496.088 597.883 500.323 600.752 505.914 600.752C511.19 600.752 515.193 597.955 516.161 593.855H511.011H511.008Z" fill="#141414"/>
<path d="M514.936 590.406H505.43C500.188 590.406 495.846 586.731 495.749 582.215C495.653 577.698 499.84 574.024 505.081 574.024C510.323 574.024 514.665 577.698 514.761 582.215L514.936 590.406ZM505.143 576.937C501.766 576.937 499.068 579.305 499.13 582.215C499.192 585.125 501.991 587.493 505.368 587.493H511.493L511.381 582.215C511.319 579.304 508.52 576.937 505.143 576.937Z" fill="#141414"/>
<path d="M513.801 582.215C513.719 578.357 509.952 574.984 505.102 574.984C500.252 574.984 496.628 578.357 496.71 582.215C496.792 586.072 500.559 589.446 505.409 589.446H513.955L513.801 582.215ZM510.421 582.215C510.373 579.963 508.149 577.897 505.164 577.897C502.178 577.897 500.042 579.964 500.09 582.215C500.138 584.465 502.362 586.533 505.347 586.533H510.513L510.421 582.215ZM512.474 588.453H505.388C501.62 588.453 498.246 585.784 498.17 582.215C498.094 578.646 501.354 575.977 505.123 575.977C508.891 575.977 512.265 578.645 512.341 582.215L512.474 588.453ZM515.916 591.366H505.45C499.817 591.366 494.899 587.39 494.789 582.215C494.679 577.039 499.428 573.064 505.061 573.064C510.694 573.064 515.611 577.039 515.722 582.215L515.916 591.366Z" fill="#141414"/>
<path d="M754.93 395.085C785.945 393.193 788.839 427.446 759.301 437.66C727.511 442.895 725.894 403.847 754.93 395.085Z" fill="#B9F08D"/>
<path d="M734.608 380.082C737.562 374.748 739.126 368.839 742.241 363.655C746.869 355.951 757.793 348.738 766.536 354.166C778.465 361.571 778.062 379.12 769.875 389.047C758.586 386.004 754.016 386.444 743.508 391.283C738.521 386.563 738.145 383.684 734.841 380.316L734.608 380.082Z" fill="#B9F08D"/>
<path d="M546.026 496.949L546.7 497.515C551.636 514.387 543.827 528.85 529.268 536.7C524.772 539.124 518.616 542.558 513.747 543.981L513.071 543.424C512.671 531.171 511.686 525.938 508.745 514.28C510.69 513.393 513.027 512.501 515.034 511.729C525.844 507.568 535.874 502.512 546.026 496.949Z" fill="#B9F08D"/>
<path d="M777.202 392.866C779.466 384.777 782.146 377.881 788.84 372.495C794.178 368.2 800.849 367.744 804.698 373.884C807.864 378.935 807.489 388.597 806.153 394.054L805.367 394C800.401 400.809 794.679 405.054 785.902 405.109C782.856 398.969 782.072 397.844 777.202 392.866Z" fill="#B9F08D"/>
<path d="M339.339 222.201C354.114 220.145 366.121 227.821 375.746 238.027C358.862 232.117 346.313 232.508 329.818 240.012C318.296 245.69 315.726 248.277 307.745 258.113C309.613 238.606 318.904 224.9 339.339 222.201Z" fill="#2F2D32"/>
<path d="M310.555 685.706L311.564 685.612C335.102 683.613 359.565 693.656 374.216 712.437C379.53 719.248 384.925 729.608 385.565 738.355C378.474 721.411 369.999 711.678 354.332 701.877C323.2 685.351 287.734 686.238 260.589 710.214C272.286 695.044 291.94 687.345 310.555 685.706Z" fill="#F8FFE9"/>
<path d="M136.206 90.638C182.588 87.883 254.278 138.735 284.209 172.207L284.015 172.642C276.631 167.479 268.906 159.525 261.535 153.907C228.318 128.547 193.127 104.011 151.778 94.403C150.378 94.078 135.522 91.388 135.62 91.445L136.206 90.638Z" fill="#F8FFE9"/>
<path d="M579.863 226.522C552.703 169.566 502.636 142.73 441.329 140.084C439.97 140.025 435.312 140.007 434.448 139.474C436.185 138.765 441.566 138.99 443.785 138.887C483.412 137.041 521.627 150.907 550.091 178.91C563.569 192.171 572.926 208.875 580.778 226.11L579.863 226.522Z" fill="#F8FFE9"/>
<path d="M510.657 186.621C523.532 185.497 533.239 190.808 541.604 200.215C528.784 196.603 518.546 194.42 505.918 200.52C497.506 205.384 494.196 209.28 489.4 217.63C489.41 202.201 494.277 190.349 510.657 186.621Z" fill="#2F2D32"/>
<path d="M387.359 6.40051C390.238 5.55161 397.122 9.67121 399.776 11.0629C439.586 31.937 474.466 75.6 497.733 113.354L496.401 113.479C474.764 77.606 424.908 25.572 387.359 6.40051Z" fill="#F8FFE9"/>
<path d="M501.652 517.016L502.464 517.305C506.576 525.387 507.215 549.198 504.003 557.728C502.501 558.764 501.009 558.479 498.923 558.584L498.239 558.369C497.632 557.044 498.727 548.222 498.713 545.569C498.661 535.786 497.874 528.607 494.613 519.399L501.652 517.016Z" fill="#F8FFE9"/>
<path d="M381.122 135.73L380.522 136.983C357.214 140.656 319.727 156.196 300.231 169.19C298.767 170.166 296.833 171.532 295.266 171.177L294.374 169.455C294.701 165.577 303.923 161.616 307.131 159.856C330.884 146.819 354.68 140.537 381.122 135.73Z" fill="#F8FFE9"/>
<path d="M497.733 113.354C502.019 120.219 505.706 126.636 509.268 133.91C507.628 132.514 498.526 116.821 496.401 113.479L497.733 113.354Z" fill="#B5B5B7"/>
<path d="M580.778 226.11C581.892 228.499 584.599 233.68 584.51 236.159C582.781 233.297 581.256 229.625 579.863 226.522L580.778 226.11Z" fill="#B5B5B7"/>
<path d="M381.122 135.73C383.234 135.41 386.182 134.766 388.18 135.155C385.715 136.287 383.214 136.529 380.522 136.983L381.122 135.73Z" fill="#B5B5B7"/>
</svg>
