<svg width="32" height="32" viewBox="0 0 32 32" fill="none" xmlns="http://www.w3.org/2000/svg">
<path d="M2.66666 12.9998C2.12 12.9998 1.66666 12.5465 1.66666 11.9998V8.6665C1.66666 4.79984 4.81333 1.6665 8.66666 1.6665H12C12.5467 1.6665 13 2.11984 13 2.6665C13 3.21317 12.5467 3.6665 12 3.6665H8.66666C5.90666 3.6665 3.66666 5.9065 3.66666 8.6665V11.9998C3.66666 12.5465 3.21333 12.9998 2.66666 12.9998Z" fill="#141414"/>
<path d="M29.3333 12.9998C28.7867 12.9998 28.3333 12.5465 28.3333 11.9998V8.6665C28.3333 5.9065 26.0933 3.6665 23.3333 3.6665H20C19.4533 3.6665 19 3.21317 19 2.6665C19 2.11984 19.4533 1.6665 20 1.6665H23.3333C27.1867 1.6665 30.3333 4.79984 30.3333 8.6665V11.9998C30.3333 12.5465 29.88 12.9998 29.3333 12.9998Z" fill="#141414"/>
<path d="M23.3333 30.3335H21.3333C20.7867 30.3335 20.3333 29.8802 20.3333 29.3335C20.3333 28.7868 20.7867 28.3335 21.3333 28.3335H23.3333C26.0933 28.3335 28.3333 26.0935 28.3333 23.3335V21.3335C28.3333 20.7868 28.7867 20.3335 29.3333 20.3335C29.88 20.3335 30.3333 20.7868 30.3333 21.3335V23.3335C30.3333 27.2002 27.1867 30.3335 23.3333 30.3335Z" fill="#141414"/>
<path d="M12 30.3333H8.66666C4.81333 30.3333 1.66666 27.2 1.66666 23.3333V20C1.66666 19.4533 2.12 19 2.66666 19C3.21333 19 3.66666 19.4533 3.66666 20V23.3333C3.66666 26.0933 5.90666 28.3333 8.66666 28.3333H12C12.5467 28.3333 13 28.7867 13 29.3333C13 29.88 12.5467 30.3333 12 30.3333Z" fill="#141414"/>
<path d="M12 7H9.33333C7.81333 7 7 7.8 7 9.33333V12C7 13.5333 7.81333 14.3333 9.33333 14.3333H12C13.52 14.3333 14.3333 13.5333 14.3333 12V9.33333C14.3333 7.8 13.52 7 12 7Z" fill="#141414"/>
<path d="M22.6667 7H20C18.48 7 17.6667 7.8 17.6667 9.33333V12C17.6667 13.5333 18.48 14.3333 20 14.3333H22.6667C24.1867 14.3333 25 13.5333 25 12V9.33333C25 7.8 24.1867 7 22.6667 7Z" fill="#141414"/>
<path d="M12 17.6665H9.33333C7.81333 17.6665 7 18.4665 7 19.9998V22.6665C7 24.1998 7.81333 24.9998 9.33333 24.9998H12C13.52 24.9998 14.3333 24.1998 14.3333 22.6665V19.9998C14.3333 18.4665 13.52 17.6665 12 17.6665Z" fill="#141414"/>
<path d="M22.6667 17.6665H20C18.48 17.6665 17.6667 18.4665 17.6667 19.9998V22.6665C17.6667 24.1998 18.48 24.9998 20 24.9998H22.6667C24.1867 24.9998 25 24.1998 25 22.6665V19.9998C25 18.4665 24.1867 17.6665 22.6667 17.6665Z" fill="#141414"/>
</svg>
