<svg width="33" height="32" viewBox="0 0 33 32" fill="none" xmlns="http://www.w3.org/2000/svg">
<path d="M25.3866 5.55994L18.0533 2.81327C17.2933 2.53327 16.0533 2.53327 15.2933 2.81327L7.95996 5.55994C6.54663 6.09327 5.39996 7.74661 5.39996 9.25327V20.0533C5.39996 21.1333 6.10663 22.5599 6.9733 23.1999L14.3066 28.6799C15.6 29.6533 17.72 29.6533 19.0133 28.6799L26.3466 23.1999C27.2133 22.5466 27.92 21.1333 27.92 20.0533V9.25327C27.9333 7.74661 26.7866 6.09327 25.3866 5.55994ZM17.6666 17.1599V20.6666C17.6666 21.2133 17.2133 21.6666 16.6666 21.6666C16.12 21.6666 15.6666 21.2133 15.6666 20.6666V17.1599C14.32 16.7333 13.3333 15.4799 13.3333 13.9999C13.3333 12.1599 14.8266 10.6666 16.6666 10.6666C18.5066 10.6666 20 12.1599 20 13.9999C20 15.4933 19.0133 16.7333 17.6666 17.1599Z" fill="#141414"/>
</svg>
