<svg width="141" height="40" viewBox="0 0 141 40" fill="none" xmlns="http://www.w3.org/2000/svg">
<g clip-path="url(#clip0_35_672)">
<path fill-rule="evenodd" clip-rule="evenodd" d="M10.1088 26.945L14.6796 26.9356C15.2947 27.808 15.6567 28.1556 16.7408 28.7105C18.913 29.8225 22.4609 29.8059 24.218 27.9502C24.6865 27.4555 24.964 26.9734 25.153 26.9337L29.7467 26.9348C29.5693 27.879 28.9292 29.0329 28.4685 29.6397C27.7871 30.5367 27.3093 30.9361 26.3507 31.6026C24.7302 32.7292 22.3473 33.3752 19.9266 33.3311C15.7183 33.2543 11.2379 31.1697 10.1085 26.945H10.1088ZM29.308 15.5555C29.4816 15.897 29.5179 23.6885 29.3583 24.3977C28.6745 24.5529 19.4035 24.4725 19.1551 24.3384C17.5068 24.4148 15.4515 23.4801 14.3187 22.783C9.9429 20.0902 8.89185 14.0089 13.4611 10.1296C15.8845 8.07206 19.8477 7.16241 23.5161 8.48838C25.0306 9.03582 26.6549 10.1371 27.3599 11.0282C28.1409 12.0157 29.3646 13.6812 29.3085 15.5555H29.308ZM6.57162 4.86717C7.86831 4.56349 9.00353 5.47232 9.23927 6.54429C9.55147 7.9644 8.64016 9.03279 7.5616 9.27214C4.59413 9.93084 3.6333 5.55569 6.57189 4.86717H6.57162ZM0.000144958 6.22185V33.7775C0.000144958 36.8797 3.11011 39.9998 6.2 39.9998H33.656C36.747 39.9998 39.8559 36.8785 39.8559 33.7775V6.22185C39.8559 4.54776 38.7897 2.79113 37.932 1.93034C37.0807 1.07591 35.3095 -0.000488281 33.656 -0.000488281H6.2C4.53196 -0.000488281 2.78167 1.06928 1.924 1.93034C1.07265 2.78478 0.000144958 4.56239 0.000144958 6.22185Z" fill="white"/>
<path fill-rule="evenodd" clip-rule="evenodd" d="M52.4322 17.0665C52.4322 13.0737 57.6407 11.491 60.722 13.813C61.4754 14.3809 62.3515 15.5316 62.3515 16.7998V21.1554H57.5689C56.0906 21.1554 54.929 20.7068 54.0614 20.0533C53.308 19.4854 52.4319 18.3348 52.4319 17.0665H52.4322ZM57.4806 8.6221C53.7162 8.6221 50.5977 10.3635 48.8843 13.328C45.8115 18.6445 50.3364 25.2442 57.4806 25.2442H63.2376C63.2376 27.2676 63.5555 27.7659 61.391 28.9019C58.5462 30.3952 54.6418 29.7146 52.9636 27.1997H48.3581C48.4241 27.9964 49.202 29.1832 49.6608 29.8033C51.3762 32.1209 54.8033 33.5998 57.6574 33.5998C60.7339 33.5998 63.0852 33.2207 65.2948 31.3981C66.1261 30.7126 66.7002 30.0733 67.2753 29.1192C68.0951 27.7592 68.02 27.187 68.02 25.5998C68.02 19.9109 68.02 14.2219 68.02 8.5332L64.4605 10.5615C63.75 11.0065 63.818 10.8304 63.2208 10.4166C61.866 9.47709 59.7439 8.6221 57.4803 8.6221H57.4806Z" fill="white"/>
<path fill-rule="evenodd" clip-rule="evenodd" d="M105.573 17.0663C105.573 15.61 106.188 14.6656 107.103 13.8912C110.159 11.305 115.492 13.3131 115.492 16.7996V21.1551H110.71C109.232 21.1551 108.07 20.7065 107.203 20.0531C106.449 19.4852 105.573 18.3345 105.573 17.0663H105.573ZM116.644 10.5773C115.501 9.97018 115.626 9.77445 113.999 9.23197C110.44 8.04598 106.551 8.70302 104.047 10.9127C102.328 12.4305 101.056 14.2534 101.056 16.7993C101.056 21.7804 105.607 25.2437 110.621 25.2437H121.161V2.93262H116.644V10.577V10.5773Z" fill="white"/>
<path fill-rule="evenodd" clip-rule="evenodd" d="M73.4227 17.0667C73.4227 13.0739 78.6312 11.4912 81.7128 13.8132C82.4662 14.3811 83.3423 15.5318 83.3423 16.8V21.1556H78.5596C75.9242 21.1556 73.4227 19.4478 73.4227 17.0667ZM68.9057 16.8C68.9057 21.7812 73.457 25.2445 78.4711 25.2445H87.8593V17.1556C87.8593 15.788 87.5215 14.449 87.0341 13.5394C84.1128 8.0859 76.1778 7.13511 71.8971 10.9134C71.6782 11.1067 71.5222 11.2102 71.3173 11.3982C70.0605 12.5522 68.9057 14.8758 68.9057 16.8Z" fill="white"/>
<path fill-rule="evenodd" clip-rule="evenodd" d="M126.563 17.0665C126.563 15.6102 127.179 14.6658 128.094 13.8914C131.15 11.3052 136.483 13.3133 136.483 16.7998V21.1554H131.7C129.065 21.1554 126.563 19.4476 126.563 17.0665ZM122.046 16.7998C122.046 21.7809 126.597 25.2442 131.612 25.2442H141V17.1554C141 14.8143 140.188 13.1366 138.765 11.5757C137.382 10.0576 134.447 8.62207 131.612 8.62207C128.948 8.62207 126.464 9.65429 125.038 10.9132C124.169 11.6798 124.71 11.118 123.926 12.0197C122.894 13.2068 122.046 15.0073 122.046 16.7998Z" fill="white"/>
<path fill-rule="evenodd" clip-rule="evenodd" d="M24.9107 20.3669C23.3678 20.3669 21.8249 20.3683 20.2823 20.3678C16.1601 20.3661 13.982 17.2421 15.3326 14.4991C16.6582 11.8069 20.7034 11.1228 23.1733 12.9202C25.526 14.6324 24.9107 17.2399 24.9107 20.3672V20.3669ZM19.155 24.3385L29.3162 24.3578L29.3082 15.5556C29.3646 13.6814 28.1408 12.0161 27.3596 11.0283C26.6546 10.1369 25.0303 9.03595 23.5158 8.4885C19.8474 7.16254 15.8844 8.07219 13.4608 10.1297C8.89156 14.0091 9.94261 20.0903 14.3185 22.7831C15.4512 23.4802 17.5065 24.415 19.1548 24.3385H19.155Z" fill="#141414"/>
<path fill-rule="evenodd" clip-rule="evenodd" d="M92.9962 11.2886V9.33296H89.0107V25.3329H93.5277V20.2661C93.5277 15.9782 96.784 13.5993 101.056 13.5993V9.066C101.056 8.92051 101.003 8.79932 100.879 8.79932C98.8891 8.79932 96.0105 9.1179 94.4162 10.0466C93.3489 10.6683 93.3563 11.0233 92.9962 11.2881V11.2886Z" fill="white"/>
<path fill-rule="evenodd" clip-rule="evenodd" d="M10.1087 26.9449C11.2382 31.1699 15.7186 33.2542 19.9269 33.331C22.3473 33.3751 24.7305 32.7291 26.3509 31.6025C27.3096 30.9361 27.7874 30.5366 28.4687 29.6396C28.9297 29.0328 29.5698 27.8789 29.747 26.9347L25.1533 26.9336C24.964 26.9731 24.6867 27.4554 24.2183 27.9501C22.4609 29.8058 18.9133 29.8224 16.741 28.7104C15.6567 28.1555 15.295 27.8079 14.6799 26.9355L10.109 26.9449H10.1087Z" fill="#141414"/>
<path fill-rule="evenodd" clip-rule="evenodd" d="M24.9107 20.3671C24.9107 17.2398 25.526 14.6323 23.1733 12.9201C20.7034 11.1227 16.6582 11.8068 15.3326 14.499C13.982 17.242 16.1601 20.366 20.2823 20.3677C21.8252 20.3682 23.368 20.3668 24.9107 20.3668V20.3671Z" fill="white"/>
<path fill-rule="evenodd" clip-rule="evenodd" d="M6.57159 4.8674C3.63327 5.55564 4.59382 9.93107 7.5613 9.27236C8.64014 9.03301 9.55117 7.96462 9.23897 6.54452C9.00323 5.47254 7.86828 4.56372 6.57132 4.8674H6.57159Z" fill="white"/>
<path fill-rule="evenodd" clip-rule="evenodd" d="M19.155 24.3385C19.4034 24.4727 28.6747 24.5528 29.3583 24.3979C29.5178 23.6887 29.4818 15.8972 29.308 15.5557L29.3159 24.3579L19.1548 24.3385H19.155Z" fill="white"/>
</g>
<defs>
<clipPath id="clip0_35_672">
<rect width="141" height="40" fill="white"/>
</clipPath>
</defs>
</svg>
