<svg width="1017" height="283" viewBox="0 0 1017 283" fill="none" xmlns="http://www.w3.org/2000/svg">
<path d="M654.29 38.5441V69.379C623.183 69.379 605.02 87.0882 605.02 116.256V145.841H575.793V41.6693H601.889V55.5589C611.492 37.0163 654.29 38.5441 654.29 38.5441Z" fill="white"/>
<path d="M911.631 140.632H854.219C822.562 140.632 796.807 118.434 796.807 91.1504C796.807 63.8666 822.562 41.6688 854.219 41.6688C885.876 41.6688 911.631 63.8666 911.631 91.1504V140.632ZM854.219 59.2662C833.822 59.2662 817.225 73.5716 817.225 91.1504C817.225 108.729 833.822 123.035 854.219 123.035H891.213V91.1504C891.213 73.5669 874.616 59.2662 854.219 59.2662Z" fill="white" stroke="white" stroke-width="11.5984"/>
<path d="M774.19 140.632H716.779C685.122 140.632 659.367 118.434 659.367 91.1504C659.367 63.8666 685.122 41.6688 716.779 41.6688C748.435 41.6688 774.19 63.8666 774.19 91.1504V140.632ZM716.779 59.2662C696.382 59.2662 679.784 73.5716 679.784 91.1504C679.784 108.729 696.382 123.035 716.779 123.035H753.773V91.1504C753.773 73.5669 737.175 59.2662 716.779 59.2662Z" fill="white" stroke="white" stroke-width="11.5984"/>
<path d="M426.24 140.632H368.828C337.172 140.632 311.416 118.434 311.416 91.1504C311.416 63.8666 337.172 41.6688 368.828 41.6688C400.485 41.6688 426.24 63.8666 426.24 91.1504V140.632ZM368.828 59.2662C348.431 59.2662 331.834 73.5716 331.834 91.1504C331.834 108.729 348.431 123.035 368.828 123.035H405.822V91.1504C405.822 73.5669 389.225 59.2662 368.828 59.2662Z" fill="white" stroke="white" stroke-width="11.5984"/>
<path d="M563.68 140.632H506.269C474.612 140.632 448.857 118.434 448.857 91.1504C448.857 63.8666 474.612 41.6688 506.269 41.6688C537.925 41.6688 563.68 63.8666 563.68 91.1504V140.632ZM506.269 59.2662C485.872 59.2662 469.274 73.5716 469.274 91.1504C469.274 108.729 485.872 123.035 506.269 123.035H543.263V91.1504C543.263 73.5669 526.665 59.2662 506.269 59.2662Z" fill="white" stroke="white" stroke-width="11.5984"/>
<path d="M407.972 153.653C408.842 164.07 390.13 174.413 374.778 174.413C359.426 174.413 346.347 168.014 339.48 157.994H309.676C316.665 182.33 341.876 199.662 375.641 199.662C407.505 199.662 432.045 182.76 438.418 157.994L407.972 153.653Z" fill="white"/>
<path d="M0 50.3495C0 26.3777 19.4729 6.94458 43.4939 6.94458H229.648C253.668 6.94458 273.141 26.3777 273.141 50.3495V236.122C273.141 260.094 253.668 279.527 229.648 279.527H43.4939C19.4729 279.527 0 260.094 0 236.122V50.3495Z" fill="white"/>
<path d="M49.583 71.2692C57.7501 71.2692 64.371 64.662 64.371 56.5116C64.371 48.3612 57.7501 41.7539 49.583 41.7539C41.4159 41.7539 34.7951 48.3612 34.7951 56.5116C34.7951 64.662 41.4159 71.2692 49.583 71.2692Z" fill="#141414"/>
<path d="M756.793 0H786.369V144.972H756.793V0Z" fill="white"/>
<path d="M407.103 54.461L438.418 36.4601V157.994L407.292 161.466L407.103 54.461Z" fill="white"/>
<path d="M170.687 185.858C165.335 196.017 153.522 202.277 138.171 202.277C122.82 202.277 109.74 195.879 102.874 185.858H73.0698C80.0587 210.194 105.268 227.527 139.034 227.527C170.898 227.527 195.439 210.625 201.812 185.858H170.704H170.687Z" fill="#141414"/>
<path d="M194.852 165.024H137.44C105.784 165.024 80.0286 142.826 80.0286 115.543C80.0286 88.2587 105.784 66.0609 137.44 66.0609C169.097 66.0609 194.852 88.2587 194.852 115.543V165.024ZM137.44 83.6583C117.044 83.6583 100.446 97.9637 100.446 115.543C100.446 133.121 117.044 147.427 137.44 147.427H174.435V115.543C174.435 97.959 157.837 83.6583 137.44 83.6583Z" fill="#141414" stroke="#141414" stroke-width="11.5984"/>
<path d="M591.29 175H606.258L618.842 216.641L623.081 201.835L632.221 175H653.548L629.307 240.7H610.364L598.708 208.048L587.183 240.7H568.108L544 175H565.327L574.467 201.835L578.706 216.641L591.29 175Z" fill="white"/>
<path d="M726.855 237.792H690.428C670.342 237.792 654 223.708 654 206.396C654 189.084 670.342 175 690.428 175C710.514 175 726.855 189.084 726.855 206.396V237.792ZM690.428 186.166C677.486 186.166 666.955 195.242 666.955 206.396C666.955 217.55 677.486 226.626 690.428 226.626H713.9V206.396C713.9 195.239 703.369 186.166 690.428 186.166Z" fill="white" stroke="white" stroke-width="7.35911"/>
<path d="M756.545 162V240.765H738V162H756.545Z" fill="white"/>
<path d="M889.403 190.925V209.035C889.403 219.611 895.761 224.766 908.478 224.766V241.951C883.972 241.951 870.858 229.789 870.858 209.035V190.925L870.877 159L889.403 159.066V173.872L908.478 190.925H889.403Z" fill="white"/>
<path d="M781.545 162V240.765H763V162H781.545Z" fill="white"/>
<path d="M864.416 212.785H809.919C810.52 216.232 812.571 219.091 816.075 221.359C819.577 223.537 824.231 224.626 830.036 224.626C838.344 224.626 844.75 222.856 849.254 219.318L861.414 231.568C854.008 238.192 843.399 241.503 829.586 241.503C816.375 241.503 806.116 238.282 798.809 231.84C791.603 225.397 788 216.686 788 205.707C788 195.363 791.553 187.015 798.659 180.663C805.766 174.221 815.324 171 827.334 171C840.446 171 850.455 174.63 857.36 181.888C864.367 189.148 866.719 199.446 864.416 212.785ZM809.919 198.494H845.05C844.849 195.046 843.048 192.414 839.646 190.6C836.242 188.694 832.138 187.741 827.334 187.741C823.03 187.741 819.328 188.694 816.225 190.6C813.122 192.505 811.02 195.136 809.919 198.494Z" fill="white"/>
</svg>
