<svg width="32" height="32" viewBox="0 0 32 32" fill="none" xmlns="http://www.w3.org/2000/svg">
<path d="M5.61079 16.6815C7.49014 15.6545 9.58799 14.7973 11.5481 13.9358C14.9203 12.5246 18.3059 11.1379 21.7256 9.84692C22.391 9.62696 23.5865 9.41188 23.7037 10.3901C23.6395 11.7748 23.3754 13.1514 23.1943 14.528C22.7346 17.5553 22.2033 20.5722 21.6852 23.5894C21.5066 24.5945 20.2376 25.1148 19.4256 24.4716C17.4742 23.1639 15.5078 21.8689 13.5812 20.5308C12.9502 19.8946 13.5354 18.981 14.099 18.5267C15.7062 16.9553 17.4107 15.6201 18.934 13.9675C19.3449 12.9831 18.1308 13.8127 17.7304 14.0669C15.53 15.5712 13.3835 17.1674 11.0637 18.4895C9.87873 19.1367 8.49763 18.5836 7.31319 18.2225C6.25121 17.7863 4.69499 17.3468 5.61069 16.6817L5.61079 16.6815Z" fill="#141414"/>
</svg>
